<svg xmlns="http://www.w3.org/2000/svg" width="128" height="128" viewBox="0 0 128 128">
    <g fill="none" fill-rule="evenodd" stroke-linecap="round" stroke-width="4">
        <g transform="translate(16 62)">
            <path fill-rule="nonzero" stroke="#4A90E2" d="M38.901 16.196l-2.877-.488a16.25 16.25 0 0 0-1.157-2.792l1.696-2.373c.72-1.01.608-2.39-.274-3.263l-2.552-2.552a2.514 2.514 0 0 0-3.255-.274l-2.38 1.696a16.08 16.08 0 0 0-2.896-1.19l-.48-2.844A2.53 2.53 0 0 0 22.227 0H18.62a2.53 2.53 0 0 0-2.501 2.116l-.497 2.912c-.959.3-1.893.693-2.783 1.173l-2.356-1.696a2.514 2.514 0 0 0-1.473-.47 2.5 2.5 0 0 0-1.79.744L4.66 7.332a2.535 2.535 0 0 0-.275 3.263L6.098 13c-.47.9-.848 1.833-1.139 2.801l-2.843.48A2.53 2.53 0 0 0 0 18.782v3.607a2.53 2.53 0 0 0 2.116 2.5l2.912.497c.3.96.693 1.893 1.173 2.784l-1.687 2.347a2.525 2.525 0 0 0 .274 3.263l2.552 2.552a2.514 2.514 0 0 0 3.255.274L13 34.893c.865.454 1.773.822 2.707 1.114l.48 2.877a2.53 2.53 0 0 0 2.5 2.116h3.615a2.53 2.53 0 0 0 2.5-2.116l.489-2.877a16.25 16.25 0 0 0 2.792-1.157l2.372 1.696c.429.309.943.471 1.474.471.676 0 1.31-.265 1.79-.745l2.552-2.552a2.535 2.535 0 0 0 .274-3.263l-1.696-2.381c.471-.9.865-1.833 1.156-2.793l2.878-.48a2.53 2.53 0 0 0 2.116-2.5v-3.606a2.5 2.5 0 0 0-2.099-2.5z"/>
            <circle cx="20.887" cy="20.887" r="5.415" stroke="#67AE19"/>
        </g>
        <g stroke-linejoin="round" transform="translate(56 25)">
            <path fill-rule="nonzero" stroke="#4A90E2" d="M52.185 21.727l-3.86-.655a21.798 21.798 0 0 0-1.552-3.746l2.275-3.182a3.387 3.387 0 0 0-.367-4.378l-3.424-3.424a3.373 3.373 0 0 0-2.402-1c-.712 0-1.39.219-1.964.633l-3.194 2.274a21.571 21.571 0 0 0-3.884-1.597l-.643-3.814A3.394 3.394 0 0 0 29.815 0h-4.837a3.394 3.394 0 0 0-3.355 2.838l-.666 3.906a21.26 21.26 0 0 0-3.734 1.574l-3.16-2.275a3.373 3.373 0 0 0-1.976-.631c-.908 0-1.77.356-2.401 1L6.25 9.834a3.401 3.401 0 0 0-.367 4.377l2.297 3.229a21.292 21.292 0 0 0-1.528 3.757l-3.814.643A3.394 3.394 0 0 0 0 25.196v4.837a3.394 3.394 0 0 0 2.838 3.355l3.906.667c.402 1.287.93 2.539 1.574 3.734l-2.263 3.148a3.387 3.387 0 0 0 .368 4.377l3.423 3.424c.644.644 1.494 1 2.402 1 .712 0 1.39-.218 1.964-.632l3.229-2.298a21.735 21.735 0 0 0 3.63 1.494l.644 3.86A3.394 3.394 0 0 0 25.07 55h4.848a3.394 3.394 0 0 0 3.355-2.838l.655-3.86c1.298-.402 2.55-.92 3.746-1.551l3.182 2.274a3.373 3.373 0 0 0 1.976.632c.908 0 1.758-.356 2.402-1l3.424-3.423a3.401 3.401 0 0 0 .367-4.378l-2.275-3.194a21.642 21.642 0 0 0 1.551-3.745l3.86-.644A3.394 3.394 0 0 0 55 29.92V25.08a3.353 3.353 0 0 0-2.815-3.354z"/>
            <circle cx="27.113" cy="27.113" r="11.62" stroke="#67AE19"/>
        </g>
    </g>
</svg>
