<svg xmlns="http://www.w3.org/2000/svg" width="40" height="40" viewBox="0 0 40 40">
    <path fill="#99A1B0" fill-rule="nonzero" d="M28.496 16.978l-3.407-2.534H12.017v.928h1.953l.488 3.71-.823.149-7.52 1.829-2.391 3.44-2.613-.049 1.059 2.216h30.275s6.458-6.678 6.444-9.371c-.006-1.189-4.91-.954-10.393-.318zm-13.06 1.936l-.49-3.54h2.93l.489 3.047c-1.147.188-2.148.356-2.93.493zm3.905-.651l-.487-2.89h3.598l.597 2.325c-1.306.19-2.561.384-3.708.565zm4.68-.707l-.591-2.183h1.233l2.641 1.748c-1.095.135-2.2.283-3.283.435z"/>
</svg>
