<svg xmlns="http://www.w3.org/2000/svg" width="40" height="40" viewBox="0 0 40 40">
    <path fill="#99A1B0" fill-rule="nonzero" d="M29.861 8.556v-1.89c0-.613-.497-1.11-1.111-1.11h-17.5c-.614 0-1.111.497-1.111 1.11v1.89h-1.25c-.614 0-1.111.497-1.111 1.11v25.89h9.166v-3h6.112v3h9.166V9.666c0-.613-.497-1.11-1.11-1.11h-1.25zM17.673 28.889h-4.491v-4.24h4.49v4.24zm0-7.369h-4.491v-4.24h4.49v4.24zm0-7.369h-4.491v-4.24h4.49v4.24zm8.982 14.738h-4.491v-4.24h4.491v4.24zm0-7.369h-4.491v-4.24h4.491v4.24zm0-7.369h-4.491v-4.24h4.491v4.24z"/>
</svg>
