<svg xmlns="http://www.w3.org/2000/svg" width="40" height="40" viewBox="0 0 40 40">
    <g fill="#99A1B0" fill-rule="nonzero">
        <path d="M8.009 35.218s-.03.778.72.778c.934 0 8.668-.01 8.668-.01l.012-7.193s-.122-1.186 1.015-1.186h3.596c1.344 0 1.261 1.186 1.261 1.186l-.015 7.17h8.484c.953 0 .91-.97.91-.97v-13.26L20.703 10.96 8.009 21.732v13.486z"/>
        <path d="M3.333 20.73s1.078 2.012 3.429 0L20.808 8.694l13.17 11.96c2.721 1.988 3.74 0 3.74 0L20.808 5.14 3.333 20.73zM33.659 8.666H30.27l.014 4.16 3.374 2.899z"/>
    </g>
</svg>
