<svg xmlns="http://www.w3.org/2000/svg" xmlns:xlink="http://www.w3.org/1999/xlink" width="192" height="192" viewBox="0 0 192 192">
    <defs>
        <circle id="a" cx="96" cy="96" r="96"/>
    </defs>
    <g fill="none" fill-rule="evenodd">
        <mask id="b" fill="#fff">
            <use xlink:href="#a"/>
        </mask>
        <use fill="#F2F2F2" xlink:href="#a"/>
        <g mask="url(#b)">
            <g transform="translate(-23.771 9.143)">
                <path fill="#F1D29D" fill-rule="nonzero" d="M87.817 57.43c4.478-2.445-6.943 58.342-6.943 58.342 3.634-21.292 8.111-47.472 0-49.852-2.986-.9-5.127-.707-6.684-.064 3.114 3.087 1.687 9.391 1.038 11.321-.779 2.444-5.71 1.672-5.71 1.672-1.039 7.462-2.791 18.462-5.257 30.104-4.478 20.906 2.401 24.894 2.401 24.894l-10.513 16.08 42.18 25.73 9.735-14.858s15.314-1.48 20.96-8.684L87.817 57.429zM152.008 19.916s8.62-10.197 15.696-4.461c7.076 5.735 1.672 13.32-1.287 16.633-2.959 3.314-14.41 13.511-14.41 13.511V19.916z"/>
                <path stroke="#F1D29D" stroke-width=".88" d="M152.008 19.916s8.62-10.197 15.696-4.461c7.076 5.735 1.672 13.32-1.287 16.633-2.959 3.314-14.41 13.511-14.41 13.511V19.916z"/>
                <path fill="#4A90E2" fill-rule="nonzero" d="M175.59 138.895c.384 1.877-.898 3.753-2.756 4.141L98.191 157.79c-1.858.388-3.716-.906-4.1-2.783L67.82 19.641c-.384-1.877.897-3.753 2.755-4.142L145.22.746c1.858-.388 3.717.906 4.101 2.783l26.27 135.366z"/>
                <path stroke="#3874BB" stroke-width=".973" d="M175.59 138.895c.384 1.877-.898 3.753-2.756 4.141L98.191 157.79c-1.858.388-3.716-.906-4.1-2.783L67.82 19.641c-.384-1.877.897-3.753 2.755-4.142L145.22.746c1.858-.388 3.717.906 4.101 2.783l26.27 135.366z"/>
                <path fill="#F2F2F2" fill-rule="nonzero" stroke="#3874BB" stroke-width="1.011" d="M168.029 124.336c.32 1.747-.833 3.494-2.563 3.818l-65.994 13.135c-1.73.324-3.46-.84-3.78-2.588L74.997 30.058c-.32-1.747.833-3.494 2.563-3.817l65.994-13.136c1.73-.323 3.46.841 3.78 2.589l20.695 108.642z"/>
                <path fill="#F1D29D" fill-rule="nonzero" stroke="#F1D29D" stroke-width="1.895" d="M56.15 149.369l10.294-16.123s-6.736-3.999-2.351-24.959 6.355-39.92 6.355-39.92 1.97-5.676 9.913-3.226c7.944 2.451 3.559 28.635 0 49.982 0 0-.381 6.836-4.766 9.287"/>
                <path fill="#FFF" fill-opacity=".205" fill-rule="nonzero" d="M75.463 77.074c.701-1.935 2.314-8.256-1.123-11.352-2.875 1.032-3.717 3.29-3.717 3.29s-.42 3.74-1.332 9.739c.07 0 5.33.774 6.172-1.677z"/>
                <path fill="#67AE19" fill-rule="nonzero" d="M49.561 255.425a2.392 2.392 0 0 1-3.36.583L1.098 223.436c-1.098-.777-1.356-2.33-.581-3.432L53.245 142.3a2.392 2.392 0 0 1 3.36-.583l45.102 32.572c1.099.777 1.357 2.331.582 3.432l-52.728 77.705z"/>
                <g fill-rule="nonzero">
                    <path fill="#F1D29D" stroke="#F1D29D" stroke-width=".81" d="M166.918 61.265c-2.908-.453-5.428 1.1-7.82 3.04-5.235 4.14-11.116 10.025-9.306 14.424 1.81 4.333 8.79 11.9 17.773 3.169 3.037-2.975 8.014-7.438 7.497-12.16-.323-3.493-3.49-6.662-6.592-7.956-.517-.259-1.035-.453-1.552-.517zM161.166 40.438c-2.779-.389-5.17.97-7.561 2.846-5.041 4.01-10.793 9.766-9.048 13.97 1.745 4.205 8.53 11.514 17.191 3.04 2.973-2.91 7.95-7.502 7.303-12.224-.452-3.04-3.296-6.015-6.075-7.115-.582-.259-1.228-.453-1.81-.517z"/>
                    <path fill="#FFF" fill-opacity=".205" d="M159.874 56.155l-8.079-7.115s-6.075 4.204-4.46 8.344c1.616 4.14 8.08 6.856 12.539-1.229z"/>
                    <path fill="#F1D29D" stroke="#F1D29D" stroke-width=".734" d="M170.215 84.226c-1.228-.129-2.392 0-3.555.453-4.201 1.811-11.116 7.956-9.565 13.066.905 2.91 3.748 5.756 6.721 6.403 3.426.776 6.528-.97 8.92-3.299 2.714-2.652 5.04-5.303 4.588-9.508-.323-3.686-3.62-6.662-7.11-7.115z"/>
                    <path fill="#FFF" fill-opacity=".205" d="M170.602 97.939l-7.109-6.986s-5.106 3.558-3.62 7.439c1.487 3.88 7.304 5.82 10.73-.453zM165.432 78.535l-8.919-8.344s-5.17 4.333-3.555 8.473c1.552 4.204 8.015 7.956 12.474-.13z"/>
                </g>
                <g fill="#0B376B" fill-rule="nonzero" opacity=".5">
                    <path d="M101.479 16.801c-.864.046-1.749-.318-1.993-.852-.252-.671.364-1.319 1.432-1.58l14.795-2.758c1.073-.193 2.066.165 2.425.83.252.67-.364 1.318-1.432 1.58l-14.795 2.758-.432.022z"/>
                </g>
                <ellipse cx="134.465" cy="141.78" fill="#0C315D" fill-rule="nonzero" opacity=".5" rx="4.636" ry="4.637"/>
                <g fill="#20AFBE" fill-rule="nonzero" opacity=".5">
                    <path d="M122.487 66.357c.446 2.044-.829 4.088-2.868 4.535-2.039.447-4.077-.83-4.523-2.874-.447-2.044.828-4.088 2.867-4.535 2.102-.447 4.078.83 4.524 2.874zM135.452 46.609c-.892.191-1.848 0-2.613-.575-5.798-4.28-13.125-5.812-20.197-4.28-6.563 1.47-12.234 5.366-15.802 11.114-.956 1.533-2.995 1.98-4.524 1.022s-1.975-3.002-1.02-4.535c4.525-7.217 11.66-12.199 19.944-13.987 8.856-1.916 18.159.064 25.422 5.429a3.282 3.282 0 0 1 .701 4.598 2.95 2.95 0 0 1-1.911 1.214z"/>
                    <path d="M130.1 53.383c-.765.191-1.53 0-2.166-.448-3.76-2.746-8.475-3.768-12.998-2.746-4.27.958-7.901 3.449-10.195 7.153-.828 1.278-2.485 1.66-3.76.83-1.273-.83-1.656-2.49-.827-3.768 3.122-4.917 7.964-8.366 13.635-9.58 6.053-1.341 12.424 0 17.394 3.705a2.752 2.752 0 0 1 .574 3.832c-.446.51-1.084.83-1.657 1.022z"/>
                    <path d="M123.808 60.51c-.765.191-1.53 0-2.166-.447-1.593-1.15-3.568-1.597-5.48-1.15-1.784.383-3.313 1.469-4.333 3.002-.828 1.277-2.484 1.66-3.759.83-1.274-.83-1.656-2.49-.828-3.768 1.784-2.81 4.524-4.726 7.773-5.429 3.44-.766 7.073 0 9.876 2.108a2.752 2.752 0 0 1 .574 3.832c-.446.51-1.02.83-1.657 1.022z"/>
                </g>
            </g>
            <g transform="rotate(-11 699.239 -356.682)">
                <rect width="21.551" height="13.186" x="3.592" fill="#C6C6C6" rx="6.593"/>
                <ellipse cx="6.585" cy="6.593" fill="#26A7B8" rx="6.585" ry="6.593"/>
            </g>
            <text fill="#4A4A4A" font-family="OpenSans-Italic, Open Sans" font-size="10.105" font-style="italic" letter-spacing="-.162" transform="rotate(-11 490.37 -335.433)">
                <tspan x="29.326" y="50.515">OFF</tspan>
            </text>
            <text fill="#1D828F" font-family="OpenSans-Italic, Open Sans" font-size="12.126" font-style="italic" letter-spacing="-.194" transform="rotate(-11 490.37 -335.433)">
                <tspan x="9.393" y="13.807">WiFi</tspan>
            </text>
        </g>
    </g>
</svg>
