<svg xmlns="http://www.w3.org/2000/svg" xmlns:xlink="http://www.w3.org/1999/xlink" width="192" height="192" viewBox="0 0 192 192">
    <defs>
        <circle id="a" cx="96" cy="96" r="96"/>
    </defs>
    <g fill="none" fill-rule="evenodd">
        <mask id="b" fill="#fff">
            <use xlink:href="#a"/>
        </mask>
        <use fill="#A2DB58" xlink:href="#a"/>
        <g mask="url(#b)">
            <g transform="translate(-16.457 9.143)">
                <path fill="#4A90E2" fill-rule="nonzero" stroke="#3874BB" stroke-width="1.011" d="M169.544 240.646c.034 2.944-2.463 5.395-5.4 5.432l-117.746.204c-2.937.037-5.38-2.463-5.415-5.407l-.23-211.923c-.035-2.944 2.463-5.395 5.4-5.432l117.745-.205c2.937-.036 5.381 2.464 5.415 5.408l.231 211.923z"/>
                <path fill="#FFF" fill-rule="nonzero" stroke="#3874BB" stroke-width="1.011" d="M161.86 216.089c-.026 2.73-2.29 5.024-5.014 5l-104.128.32c-2.723-.023-5.01-2.29-4.985-5.02l.405-169.97c.025-2.73 2.29-5.025 5.013-5.002l104.128-.32c2.724.024 5.01 2.291 4.985 5.02l-.404 169.972z"/>
                <path fill="#F7F7F7" d="M48.523 52.333h113.221v166.055H48.523z"/>
                <ellipse cx="105.234" cy="234.697" fill="#0C315D" fill-rule="nonzero" opacity=".5" rx="7.177" ry="7.125"/>
                <rect width="31.136" height="4.214" x="89.566" y="30.905" fill="#21548F" rx="2.107"/>
            </g>
            <g fill-rule="nonzero">
                <path fill="#F4CF91" d="M168.882 324.809l-11.46 1.29-5.236-45.868-50.424-48.787-14.935-43.385-3.126-33.646s11.692-5.62 16.582 2.005c4.481 7.84 8.738 29.913 8.738 29.913l8.018 15.391-16.36-127.588s-2.9-10.762 8.402-11.733c10.263-.949 10.275 6.887 12.364 14.676.222.728 8.45 38.124 14.25 64.528l-2.61-24.357c-.665-6.716 4.241-12.757 11.01-13.773 6.673-.702 12.649 4.21 13.625 11.022l.784 7.316c1.272-3.6 4.554-6.362 8.87-6.736 5.732-.62 11.087 3.39 11.693 9.338l4.257 35.093.803.093-2.403-19.8c-.7-5.638 3.318-10.85 9.366-11.374 5.732-.621 11.087 3.389 11.693 9.338l5.51 45.418c.17 1.36.064 2.696-.279 3.947l6.446 55.626 8.796 76.38-54.347 5.901-.027-.228z"/>
                <path fill="#F5A623" d="M258.762 284.057l-86.92 9.086-29.183 2.964 37.686 322.27 116.198-12.36z"/>
            </g>
            <g fill="#000" fill-rule="nonzero">
                <path d="M109.531 56.686h-.548c-.101 0-.183.09-.183.203v2.336c0 .113.082.204.183.204h.548c.101 0 .183-.091.183-.204V56.89c0-.112-.082-.203-.183-.203zM111.36 55.771h-.549c-.1 0-.182.092-.182.206v3.246c0 .114.081.206.182.206h.549c.101 0 .183-.092.183-.206v-3.246c0-.114-.082-.206-.183-.206zM113.189 54.857h-.549c-.101 0-.183.093-.183.207v4.158c0 .114.082.207.183.207h.549c.1 0 .182-.093.182-.207v-4.158c0-.114-.081-.207-.182-.207zM115.017 53.943h-.548c-.101 0-.183.095-.183.212v5.061c0 .118.082.213.183.213h.548c.101 0 .183-.095.183-.213v-5.061c0-.117-.082-.212-.183-.212z"/>
            </g>
            <text fill="#000" font-family="OpenSans, Open Sans" font-size="6.063" letter-spacing="-.097" transform="translate(-46.629 9.143)">
                <tspan x="170.187" y="49.501">8:03 </tspan> <tspan x="171.591" y="57.501">am</tspan>
            </text>
            <g transform="translate(34.743 54.857)">
                <rect width="8.963" height="3.561" x=".505" y=".505" stroke="#000" stroke-width="1.011" rx="1.011"/>
                <path fill="#000" d="M.997.914h5.984v3.657H.997z"/>
                <rect width="1.995" height="2.743" x="8.977" y=".914" fill="#000" rx=".997"/>
            </g>
        </g>
    </g>
</svg>
