<svg xmlns="http://www.w3.org/2000/svg" width="48" height="33" viewBox="0 0 48 33">
    <path fill="#F2F2F2" fill-rule="nonzero" d="M10.523 12C16.31 12 21 16.701 21 22.5S16.31 33 10.523 33C4.737 33 .047 28.299.047 22.5L0 21C0 9.402 9.381 0 20.953 0v6c-3.997 0-7.756 1.56-10.583 4.393a15.208 15.208 0 0 0-1.488 1.736A10.531 10.531 0 0 1 10.523 12zm27 0C43.31 12 48 16.701 48 22.5S43.31 33 37.523 33c-5.786 0-10.476-4.701-10.476-10.5L27 21C27 9.402 36.381 0 47.953 0v6c-3.997 0-7.756 1.56-10.583 4.393a15.2 15.2 0 0 0-1.489 1.736A10.532 10.532 0 0 1 37.523 12z"/>
</svg>
