<svg xmlns="http://www.w3.org/2000/svg" width="32" height="32" viewBox="0 0 32 32">
    <g fill="none" fill-rule="evenodd">
        <path d="M0 0h32v32H0z"/>
        <path fill="#3B91FC" fill-rule="nonzero" d="M4.32 24.79c-1.828-1.828-1.821-4.81.016-6.646L16.19 6.289c2.544-2.544 6.675-2.551 9.21-.017 2.534 2.534 2.526 6.666-.018 9.21l-9.216 9.216a1.075 1.075 0 0 1-1.52.014 1.075 1.075 0 0 1 .014-1.52l9.216-9.217c1.698-1.698 1.693-4.465-.01-6.169-1.704-1.703-4.472-1.708-6.17-.01L5.842 19.65c-.99.99-.986 2.608.012 3.606a2.553 2.553 0 0 0 3.606.011l9.046-9.046a.738.738 0 0 0-.013-1.043.738.738 0 0 0-1.043-.012l-6.408 6.408a1.075 1.075 0 0 1-1.52.013 1.075 1.075 0 0 1 .014-1.52l6.408-6.408c1.13-1.13 2.962-1.136 4.083-.015 1.122 1.122 1.115 2.954-.015 4.084l-9.134 9.134a1.06 1.06 0 0 1-.087.078c-1.847 1.67-4.7 1.621-6.472-.15z"/>
    </g>
</svg>
