<svg xmlns="http://www.w3.org/2000/svg" width="128" height="128" viewBox="0 0 128 128">
    <g fill="none" fill-rule="evenodd" stroke-linecap="round" stroke-linejoin="round" stroke-width="4">
        <g fill-rule="nonzero" stroke="#4A90E2">
            <path d="M43.072 54.707c7.794 0 14.112-8.217 14.112-18.353C57.184 22.297 50.866 18 43.072 18c-7.794 0-14.111 4.297-14.111 18.354 0 10.136 6.318 18.353 14.111 18.353zM75.682 82.471l-7.353-17.72a3.852 3.852 0 0 0-1.662-1.893l-11.41-6.355a.696.696 0 0 0-.783.07c-3.228 2.612-7.023 3.993-10.974 3.993-3.952 0-7.746-1.38-10.974-3.992a.697.697 0 0 0-.783-.07l-11.41 6.354a3.851 3.851 0 0 0-1.662 1.893l-7.353 17.72a4.156 4.156 0 0 0 .278 3.74c.68 1.12 1.833 1.789 3.082 1.789h57.644c1.249 0 2.401-.669 3.082-1.79.68-1.12.785-2.518.278-3.739z"/>
        </g>
        <path fill="#FFF" stroke="#67AE19" d="M73.296 90.954c1.85 3.929 1.267 8.723-1.843 12.058-2.743 2.941-6.755 4-10.441 3.132l4.154-4.454a4 4 0 0 0-.198-5.654l-1.691-1.577a4 4 0 0 0-5.653.197l-4.4 4.719c-1.477-3.788-.79-8.225 2.14-11.367 3.109-3.335 7.851-4.25 11.899-2.68l25.44-27.282c-1.848-3.929-1.266-8.723 1.844-12.058 2.93-3.142 7.309-4.136 11.19-2.927l-4.4 4.718a4 4 0 0 0 .198 5.654l1.69 1.577a4 4 0 0 0 5.654-.198l4.154-4.454c1.123 3.616.347 7.693-2.396 10.634-3.11 3.335-7.852 4.25-11.9 2.68l-25.44 27.282z"/>
    </g>
</svg>
