<svg xmlns="http://www.w3.org/2000/svg" width="128" height="128" viewBox="0 0 128 128">
    <g fill="none" fill-rule="evenodd" stroke-width="4">
        <path stroke="#67AE19" stroke-linecap="round" stroke-linejoin="round" d="M53 102l10.894-48L75 102z"/>
        <g transform="translate(27 27)">
            <ellipse cx="37.5" cy="30.076" fill="#FFF" stroke="#67AE19" rx="7.163" ry="7.201"/>
            <g stroke="#4A90E2" stroke-linecap="round">
                <path d="M58.31 60.474c9.85-6.457 16.374-17.71 16.374-30.51 0-12.428-6.148-23.396-15.521-29.934"/>
                <path d="M53.113 50.809c6.643-4.355 11.042-11.943 11.042-20.576 0-8.38-4.146-15.777-10.467-20.186"/>
                <path d="M49.23 40.548a12.555 12.555 0 0 0 5.648-10.525c0-4.286-2.12-8.07-5.354-10.325"/>
            </g>
            <g stroke="#4A90E2" stroke-linecap="round">
                <path d="M16.69 60.474C6.84 54.017.317 42.764.317 29.964.316 17.535 6.464 6.567 15.837.03"/>
                <path d="M21.887 50.809c-6.643-4.355-11.042-11.943-11.042-20.576 0-8.38 4.146-15.777 10.467-20.186"/>
                <path d="M25.77 40.548a12.555 12.555 0 0 1-5.648-10.525c0-4.286 2.12-8.07 5.354-10.325"/>
            </g>
        </g>
    </g>
</svg>
