<svg xmlns="http://www.w3.org/2000/svg" width="24" height="24" viewBox="0 0 24 24">
    <g fill="none" fill-rule="evenodd">
        <g fill="#99A1B0" fill-rule="nonzero" transform="translate(1 3)">
            <path d="M20.464 3.8H8.142c-.401 0-.63.296-.51.662L9.58 9.917c.096.295.436.533.758.533h8.079c.323 0 .662-.238.757-.533l1.7-5.583c.096-.295-.087-.534-.41-.534z"/>
            <circle cx="9.5" cy="17.1" r="1.9"/>
            <circle cx="17.1" cy="17.1" r="1.9"/>
            <path d="M18.936 11.386H8.468L4.277 0H1.014C.454 0 0 .428 0 .957c0 .529.454.957 1.014.957h1.821L7.026 13.3h11.91c.56 0 1.014-.428 1.014-.957 0-.529-.454-.957-1.014-.957z"/>
        </g>
        <path d="M0 0h24v24H0z"/>
    </g>
</svg>
