<svg xmlns="http://www.w3.org/2000/svg" width="40" height="40" viewBox="0 0 40 40">
    <path fill="#99A1B0" fill-rule="nonzero" d="M37.423 33.705h-.666V16.44a.348.348 0 0 0-.261-.334l-15.45-4.124a.348.348 0 0 1-.26-.334v-3.27c0-1.56-3.679-2.823-8.216-2.823-4.537 0-8.215 1.264-8.215 2.823v25.326h-.667a.35.35 0 0 0-.355.346v1.158a.35.35 0 0 0 .355.347h33.735a.35.35 0 0 0 .355-.347v-1.158a.35.35 0 0 0-.355-.346zM7.164 29.703a.349.349 0 0 1-.259.334c-.493.137-.944.292-1.344.461-.235.1-.497-.067-.497-.317v-1.527c0-.133.079-.254.202-.312a9.967 9.967 0 0 1 1.441-.537c.228-.067.457.1.457.332v1.566zm0-3.704a.349.349 0 0 1-.259.334c-.493.137-.944.292-1.344.461-.235.1-.497-.067-.497-.317V24.95c0-.133.079-.254.202-.313a9.967 9.967 0 0 1 1.441-.536c.228-.067.457.1.457.332v1.566zm0-3.704a.349.349 0 0 1-.259.334c-.493.137-.944.291-1.344.46-.235.1-.497-.066-.497-.316v-1.527c0-.133.079-.254.202-.313a9.962 9.962 0 0 1 1.441-.536c.228-.067.457.1.457.332v1.566zm0-3.704a.349.349 0 0 1-.259.334c-.493.137-.944.291-1.344.46-.235.1-.497-.066-.497-.316v-1.527c0-.133.079-.255.202-.313a9.966 9.966 0 0 1 1.441-.536c.228-.067.457.1.457.332v1.566zm0-3.704a.349.349 0 0 1-.259.334c-.493.137-.944.291-1.344.46-.235.1-.497-.066-.497-.316v-1.527c0-.133.079-.255.202-.313a9.966 9.966 0 0 1 1.441-.536c.228-.067.457.1.457.332v1.566zm0-3.704a.349.349 0 0 1-.259.334c-.493.137-.944.291-1.344.46-.235.1-.497-.066-.497-.317v-1.526c0-.134.079-.255.202-.313a9.966 9.966 0 0 1 1.441-.536c.228-.067.457.1.457.331v1.567zm4.958 17.832a.35.35 0 0 1-.344.346 23.3 23.3 0 0 0-3.301.325.352.352 0 0 1-.417-.34V27.76c0-.166.12-.31.288-.34a23.109 23.109 0 0 1 3.41-.348c.199-.006.364.151.364.347v1.595zm0-3.704a.35.35 0 0 1-.344.346c-1.18.035-2.295.149-3.301.325a.352.352 0 0 1-.417-.34v-1.585c0-.166.12-.31.288-.34a23.104 23.104 0 0 1 3.41-.348c.199-.006.364.151.364.347v1.595zm0-3.704a.35.35 0 0 1-.344.346 23.29 23.29 0 0 0-3.301.325.352.352 0 0 1-.417-.34v-1.585c0-.166.12-.31.288-.34a23.118 23.118 0 0 1 3.41-.348.35.35 0 0 1 .364.347v1.595zm0-3.704a.35.35 0 0 1-.344.346 23.3 23.3 0 0 0-3.301.325.352.352 0 0 1-.417-.341v-1.584c0-.166.12-.31.288-.34a23.113 23.113 0 0 1 3.41-.348c.199-.006.364.151.364.347v1.595zm0-3.704a.35.35 0 0 1-.344.346c-1.18.035-2.295.149-3.301.325a.352.352 0 0 1-.417-.341v-1.584c0-.166.12-.31.288-.34a23.104 23.104 0 0 1 3.41-.348c.199-.006.364.151.364.347v1.595zm0-3.704a.35.35 0 0 1-.344.346c-1.18.035-2.295.148-3.301.325a.352.352 0 0 1-.417-.341V9.24c0-.167.12-.31.288-.34a23.113 23.113 0 0 1 3.41-.348c.199-.006.364.151.364.346v1.596zm5.854-.879c0-.232.23-.398.457-.331.539.158 1.023.338 1.44.536.124.058.203.18.203.313v1.526c0 .25-.262.417-.497.318-.4-.17-.85-.324-1.344-.461a.349.349 0 0 1-.26-.334V9.616zm-.896 19.73c0 .215-.2.378-.417.34a23.291 23.291 0 0 0-3.301-.325.35.35 0 0 1-.344-.346V27.42a.35.35 0 0 1 .365-.347c1.223.038 2.376.16 3.41.348.167.03.288.174.288.34v1.584zm0-3.705c0 .216-.2.38-.417.341a23.297 23.297 0 0 0-3.301-.325.35.35 0 0 1-.344-.346v-1.595a.35.35 0 0 1 .365-.347c1.223.038 2.376.16 3.41.348.167.03.288.174.288.34v1.584zm0-3.704c0 .216-.2.38-.417.341a23.292 23.292 0 0 0-3.301-.325.35.35 0 0 1-.344-.346v-1.595a.35.35 0 0 1 .365-.347c1.223.038 2.376.16 3.41.348.167.03.288.174.288.34v1.584zm0-3.704c0 .216-.2.38-.417.341a23.291 23.291 0 0 0-3.301-.325.35.35 0 0 1-.344-.346v-1.595a.35.35 0 0 1 .365-.347c1.223.038 2.376.16 3.41.348.167.03.288.174.288.34v1.584zm0-3.704c0 .216-.2.379-.417.34a23.286 23.286 0 0 0-3.301-.324.35.35 0 0 1-.344-.346v-1.595c0-.196.165-.353.365-.347 1.223.037 2.376.159 3.41.347.167.031.288.175.288.341v1.584zm0-3.704c0 .216-.2.379-.417.34a23.286 23.286 0 0 0-3.301-.324.35.35 0 0 1-.344-.346V8.9a.35.35 0 0 1 .365-.347c1.223.037 2.376.159 3.41.347.167.03.288.174.288.34v1.585zm.896 4.062V13.32c0-.233.23-.4.457-.332.539.158 1.023.338 1.44.536.124.058.203.18.203.313v1.527c0 .25-.262.416-.497.317-.4-.17-.85-.324-1.344-.461a.349.349 0 0 1-.26-.334zm11.48 18.818h-5.458v-3.199a.35.35 0 0 1 .354-.346h4.749a.35.35 0 0 1 .354.346v3.199zm5.6-6.082a.35.35 0 0 1-.355.347H19.518a.35.35 0 0 1-.355-.347v-1.337a.35.35 0 0 1 .355-.346H34.7a.35.35 0 0 1 .355.346v1.337zm0-3.43a.35.35 0 0 1-.355.346H19.518a.35.35 0 0 1-.355-.347v-1.337a.35.35 0 0 1 .355-.346H34.7a.35.35 0 0 1 .355.346v1.337zm0-3.432a.35.35 0 0 1-.355.347H19.518a.35.35 0 0 1-.355-.347v-1.337a.35.35 0 0 1 .355-.346H34.7a.35.35 0 0 1 .355.346v1.337z"/>
</svg>
