<svg xmlns="http://www.w3.org/2000/svg" xmlns:xlink="http://www.w3.org/1999/xlink" width="192" height="192" viewBox="0 0 192 192">
    <defs>
        <circle id="a" cx="96" cy="96" r="96"/>
        <linearGradient id="c" x1="50%" x2="50%" y1="100%" y2="0%">
            <stop offset="0%" stop-color="#DAF1EF"/>
            <stop offset="100%" stop-color="#BDDFDF"/>
        </linearGradient>
    </defs>
    <g fill="none" fill-rule="evenodd">
        <mask id="b" fill="#fff">
            <use xlink:href="#a"/>
        </mask>
        <use fill="#F2F2F2" xlink:href="#a"/>
        <g fill-rule="nonzero" mask="url(#b)">
            <path fill="url(#c)" d="M0 0h357.486v414.919H0z" transform="translate(-83.2 -179.2)"/>
            <path fill="#A3DDD6" d="M243.7-52.665h-31.765v210.5h52.172v-210.5z" opacity=".8"/>
            <g fill="#ADD7D7" opacity=".4">
                <path d="M218.72-44.18h8.508v8.485h-8.507zM234.063-44.18h8.507v8.485h-8.507zM249.356-44.18h8.507v8.485h-8.507zM218.72-26.082h8.508v8.485h-8.507zM234.063-26.082h8.507v8.485h-8.507zM249.356-26.082h8.507v8.485h-8.507z"/>
                <g>
                    <path d="M218.72-7.936h8.508V.55h-8.507zM234.063-7.936h8.507V.55h-8.507zM249.356-7.936h8.507V.55h-8.507z"/>
                </g>
                <g>
                    <path d="M218.72 10.162h8.508v8.485h-8.507zM234.063 10.162h8.507v8.485h-8.507zM249.356 10.162h8.507v8.485h-8.507z"/>
                </g>
            </g>
            <g fill="#ADD7D7" opacity=".4">
                <path d="M125.685-75.225h11.36v11.329h-11.36zM146.092-75.225h11.36v11.329h-11.36zM166.5-75.225h11.358v11.329H166.5zM186.955-75.225h11.36v11.329h-11.36zM125.685-51.095h11.36v11.329h-11.36zM146.092-51.095h11.36v11.329h-11.36zM166.5-51.095h11.358v11.329H166.5zM186.955-51.095h11.36v11.329h-11.36z"/>
                <g>
                    <path d="M125.685-26.916h11.36v11.329h-11.36zM146.092-26.916h11.36v11.329h-11.36zM166.5-26.916h11.358v11.329H166.5zM186.955-26.916h11.36v11.329h-11.36z"/>
                </g>
                <g>
                    <path d="M125.685-2.786h11.36V8.543h-11.36zM146.092-2.786h11.36V8.543h-11.36zM166.5-2.786h11.358V8.543H166.5zM186.955-2.786h11.36V8.543h-11.36z"/>
                </g>
                <g>
                    <path d="M146.093-97.884h11.359v11.329h-11.36zM166.499-97.884h11.359v11.329h-11.36z"/>
                </g>
            </g>
            <path fill="#A3DDD6" d="M112.065-93.323H34.913v4.513h4.524v278.427h72.628V-88.81h4.524v-4.513z" opacity=".8"/>
            <g opacity=".4">
                <path fill="#A3DDD6" d="M-19.57-32.213v-11.33h-15.883v11.33h-6.835v224.086h77.2V-32.213z"/>
                <g fill="#ADD7D7">
                    <path d="M-35.453 1.382h9.933v9.907h-9.933zM-17.603 1.382h9.933v9.907h-9.933zM.296 1.382h9.933v9.907H.296zM18.145 1.382h9.933v9.907h-9.933zM-35.453-19.756h9.933v9.907h-9.933zM-17.603-19.756h9.933v9.907h-9.933zM.296-19.756h9.933v9.907H.296zM18.145-19.756h9.933v9.907h-9.933z"/>
                </g>
            </g>
            <path fill="#6A952F" d="M-83.2 156.271v87.005h357.486v-87.005z"/>
            <g transform="translate(-24.881 -43.917)">
                <ellipse cx="23.133" cy="134.021" fill="#6A952F" rx="14.972" ry="14.933"/>
                <ellipse cx="77.291" cy="134.021" fill="#6A952F" rx="14.972" ry="14.933"/>
                <path fill="#8DC63F" d="M92.262 111.27c0 7.872-6.107 14.287-13.836 14.88-7.73-.593-13.837-7.008-13.837-14.88 0-7.87 6.108-14.285 13.837-14.878 7.783.593 13.836 7.062 13.836 14.879z"/>
                <path fill="#6A952F" d="M78.48 126.204c-.379.054-.757.054-1.135.054-8.27 0-14.972-6.685-14.972-14.933 0-8.248 6.702-14.933 14.972-14.933.378 0 .756 0 1.135.054-7.73.593-13.837 7.008-13.837 14.879 0 7.817 6.108 14.286 13.837 14.88z"/>
                <path fill="#8DC63F" d="M38.105 111.27c0 7.872-6.108 14.287-13.837 14.88-7.729-.593-13.836-7.008-13.836-14.88 0-7.87 6.107-14.285 13.836-14.878 7.783.593 13.837 7.062 13.837 14.879z"/>
                <path fill="#6A952F" d="M24.322 126.204c-.378.054-.756.054-1.135.054-8.27 0-14.971-6.685-14.971-14.933 0-8.248 6.702-14.933 14.971-14.933.379 0 .757 0 1.135.054-7.729.593-13.836 7.008-13.836 14.879 0 7.817 6.107 14.286 13.836 14.88z"/>
                <path fill="#8DC63F" d="M100.1 49.705c0 26.2-20.27 47.657-46.05 49.598C28.321 97.362 8 75.852 8 49.705 8 23.56 28.267 2.05 54.05.108c25.78 1.995 46.05 23.45 46.05 49.597z"/>
                <path fill="#6A952F" d="M54.05 99.357c-1.244.108-2.541.161-3.838.161C22.647 99.518.324 77.253.324 49.76S22.647 0 50.212 0c1.297 0 2.594.054 3.837.162C28.322 2.102 8 23.612 8 49.759c0 26.147 20.323 47.603 46.05 49.598z"/>
                <path fill="#A67C52" d="M50.212 131.056c-.487 0-.919-.108-1.351-.377l-21.404-12.885a2.62 2.62 0 0 1-.865-3.612c.757-1.24 2.378-1.617 3.622-.863l20.052 12.076 20.052-12.076c1.243-.754 2.865-.323 3.622.863.756 1.24.324 2.857-.865 3.612L51.67 130.679c-.486.27-.973.377-1.46.377z"/>
                <path fill="#A67C52" d="M50.212 208.795c-3.135 0-5.675-2.534-5.675-5.66V80.918c0-3.126 2.54-5.66 5.675-5.66s5.675 2.534 5.675 5.66v122.215c.054 3.127-2.486 5.66-5.675 5.66z"/>
                <path fill="#A67C52" d="M50.212 153.806c-.487 0-.919-.108-1.351-.377l-21.404-12.885a2.62 2.62 0 0 1-.865-3.612c.757-1.24 2.378-1.617 3.622-.862l20.052 12.076 20.052-12.076c1.243-.755 2.865-.324 3.622.862.756 1.24.324 2.857-.865 3.612L51.67 153.43c-.486.27-.973.377-1.46.377z"/>
            </g>
            <path fill="#6A952F" d="M4.597 146.021c-.836-5.64-5.704-10.005-11.605-10.005-1.82 0-3.491.393-5.015 1.128-2.016-4.267-6.344-7.21-11.36-7.21-5.556 0-10.276 3.63-11.899 8.584-.836-.344-1.77-.49-2.705-.49-4.18 0-7.572 3.334-7.67 7.454-5.508.196-9.933 4.757-9.933 10.3 0 5.689 4.622 10.299 10.326 10.299h.492c-.05.294-.05.637-.05.932 0 6.326 5.114 11.427 11.458 11.427 5.655 0 10.375-4.07 11.31-9.466a7.342 7.342 0 0 0 7.08 5.395c4.032 0 7.327-3.286 7.327-7.307v-.589a11.85 11.85 0 0 0 4.77.981c6.687 0 12.047-5.395 12.047-12.016 0-3.776-1.77-7.21-4.573-9.417z"/>
            <path fill="#8CC541" d="M47.158 145.04c.05-.343.098-.686.098-1.078a7.849 7.849 0 0 0-7.867-7.848 7.828 7.828 0 0 0-6.343 3.237c-.148-4.953-4.23-8.877-9.196-8.877-2.557 0-4.917 1.03-6.589 2.747-2.213-2.011-5.163-3.286-8.458-3.286-6.884 0-12.49 5.59-12.49 12.457v.589c-5.458 1.422-9.49 6.326-9.49 12.212 0 6.964 5.655 12.604 12.638 12.604 1.77 0 3.442-.343 4.917-.98-.05.343-.05.637-.05.98 0 5.886 4.82 10.692 10.72 10.692 4.377 0 8.114-2.6 9.786-6.376a9.166 9.166 0 0 0 7.67 4.17c5.065 0 9.147-4.072 9.147-9.123 0-1.324-.295-2.6-.787-3.728.54-.392.983-.784 1.475-1.177a9.41 9.41 0 0 0 4.082.932c5.015 0 9.146-4.07 9.146-9.122.049-4.758-3.688-8.681-8.409-9.024z"/>
            <path fill="#FFF" d="M-26.307-106.27c.295-.442.442-1.03.442-1.619 0-1.667-1.376-3.04-3.048-3.04-.246 0-.492.048-.738.097-.098 0-.147-.049-.147-.098-.738-4.267-4.475-7.504-8.95-7.504a9.071 9.071 0 0 0-8.802 6.769c0 .098-.098.098-.147.049-1.131-1.374-2.803-2.256-4.72-2.256-3.345 0-6.05 2.697-6.05 6.032 0 .589.1 1.128.247 1.619 0 .098 0 .147-.099.196a7.55 7.55 0 0 0-5.409 7.258c0 4.17 3.393 7.553 7.573 7.553h27.88c4.18 0 7.574-3.384 7.574-7.553 0-3.482-2.36-6.424-5.606-7.307-.05-.05-.05-.098 0-.196z" opacity=".5"/>
            <path fill="#FFF" d="M24.488-100.385c.492-.785.787-1.668.787-2.648a5.051 5.051 0 0 0-5.065-5.052c-.393 0-.787.049-1.18.147-.147.05-.246-.049-.295-.196-1.23-7.112-7.425-12.556-14.9-12.556a15.145 15.145 0 0 0-14.653 11.232c-.049.147-.147.147-.196.049-1.869-2.305-4.672-3.728-7.868-3.728-5.557 0-10.08 4.512-10.08 10.054 0 .932.147 1.864.393 2.747.05.147-.05.294-.148.294-5.212 1.52-9.047 6.376-9.047 12.065 0 6.965 5.654 12.556 12.588 12.556H21.34c6.983 0 12.588-5.64 12.588-12.556 0-5.836-3.983-10.691-9.342-12.163-.148-.049-.197-.147-.099-.245z"/>
            <g>
                <path fill="#F0BFA8" d="M96.383 84.536h21.17v40.249h-21.17z"/>
                <path fill="#2574A9" d="M158.294 297.656h-26.162s6.99-60.072-.2-66.613c-7.19-6.54-21.07-9.257-21.07-9.257h-7.689s-16.576 4.629-22.168 9.257c-5.592 4.63 0 66.613 0 66.613H54.843s-7.889-62.89 0-75.87c7.888-12.98 22.168-20.527 22.168-20.527h59.914s12.382 3.824 21.07 20.527c0 .1.1.1.1.201 8.687 16.905.2 75.67.2 75.67z"/>
                <path fill="#FFF" d="M83.801 301.882c0 7.346-32.254 7.346-32.254 0 0-7.345 7.19-10.464 16.177-10.464 8.887 0 16.077 3.119 16.077 10.464zM162.189 301.882c0 7.346-32.254 7.346-32.254 0 0-7.345 7.19-10.464 16.177-10.464 8.887 0 16.077 3.119 16.077 10.464z"/>
                <g>
                    <path fill="#FFF" d="M142.417 130.017l-2.297 10.063-1.897 8.553-.999 4.226-.898 4.126-1.498 6.741-3.895 17.207H84.3l-8.088-32.2-1.598-6.138-.798-3.22-.1-.2-1.898-7.447-.4-1.51 3.496-14.992.6-2.516c1.097-4.226 5.99-6.842 10.784-8.452 4.094-1.409 8.188-2.013 9.885-2.214.5-.1.8-.1.8-.1.499 2.213 2.496 5.634 9.785 5.634 7.29 0 9.387-3.723 9.986-6.238 0 0 .2.1.599.201 1.398.403 4.793 1.409 8.588 3.22 2.596 1.207 5.392 2.817 7.689 4.73 2.596 2.213 4.693 4.83 5.292 7.949v.301c0 .101 0 .202.1.302l.599 2.415 2.796 9.56z"/>
                    <path fill="#FFCA05" d="M146.012 111.2a38.68 38.68 0 0 0-3.795-5.232c-3.495-3.924-7.988-7.244-13.98-9.458-3.095-1.208-6.69-2.013-10.684-2.516l-.3.705-.2.503-6.79 15.395-3.295 7.346-3.295-7.346-7.39-16.603c-3.994.503-7.589 1.409-10.684 2.516-8.488 3.12-13.98 8.352-17.775 14.69 0 0 5.992 12.78 5.892 16.302v63.292c0 2.013 1.697 3.723 3.694 3.723h59.016c1.997 0 3.694-1.71 3.694-3.723v-60.777c0-3.32 5.892-18.816 5.892-18.816z"/>
                    <path fill="#EFB807" d="M79.008 133.237h21.77v2.314h-21.77z"/>
                    <path fill="#FFCA05" d="M79.008 135.551h21.77v20.427h-21.77z"/>
                    <g>
                        <path fill="#EFB807" d="M134.319 135.573H112.55v-2.314h21.769z"/>
                        <path fill="#FFCA05" d="M112.56 135.551h21.769v20.427h-21.77z"/>
                    </g>
                    <path fill="#EFB807" d="M129.535 103.453l-1.298-6.943c-3.095-1.208-6.69-2.013-10.684-2.516l-10.086 22.137h-1.198L96.183 93.994c-3.994.503-7.589 1.409-10.684 2.516l-1.298 6.943 12.881 4.125-3.595 6.038 12.382 3.019v76.775H107.767v-76.775l12.382-3.02-3.595-6.037 12.981-4.125z"/>
                    <g>
                        <path fill="#231F20" d="M136.925 201.259H77.01v-6.641h59.914z"/>
                        <path fill="#42404D" d="M109.764 203.07h-5.492c-2.097 0-3.795-1.71-3.795-3.824v-2.716c0-2.113 1.698-3.824 3.795-3.824h5.492c2.097 0 3.794 1.71 3.794 3.824v2.716c0 2.114-1.697 3.824-3.794 3.824zm-5.492-8.452c-.999 0-1.898.905-1.898 1.912v2.716c0 1.107.9 1.912 1.898 1.912h5.492c.998 0 1.897-.905 1.897-1.912v-2.716a1.903 1.903 0 0 0-1.897-1.912h-5.492z"/>
                    </g>
                    <g>
                        <g fill="#F7CDB9">
                            <path d="M73.216 211.824c-2.796 0-5.492-1.71-6.49-4.528l-1.298-3.42c-.8-2.114-1.798-5.133-2.996-8.755-1.498-4.629-2.796-8.855-3.895-12.78-1.298-4.93-2.596-10.162-3.295-15.898-.2-1.409-.2-2.817-.2-4.025v-.805-.704l.3-3.824v-.302c.1-.905.2-1.81.4-2.616l.2-1.207v-.202c.199-.905.299-1.71.498-2.616.1-.402.2-.805.2-1.207v-.202a108.938 108.938 0 0 1 3.994-13.584 108.154 108.154 0 0 1 3.795-9.156c.999-2.114 1.598-3.321 1.698-3.422 1.797-3.42 5.891-4.729 9.286-2.918 3.395 1.811 4.693 5.937 2.896 9.358 0 .1-.6 1.107-1.398 2.918-.799 1.71-1.997 4.428-3.395 8.05-1.498 3.925-2.596 7.849-3.495 11.673-.1.402-.2.805-.2 1.207-.1.704-.3 1.409-.4 2.113l-.199 1.208c-.1.704-.2 1.408-.3 2.213l-.299 3.422v.603c0 .805 0 1.71.1 2.214v.302c.5 4.73 1.598 9.257 2.896 13.785a176.438 176.438 0 0 0 3.694 12.075c1.199 3.522 2.197 6.34 2.896 8.452l1.198 3.321c1.299 3.622-.499 7.647-4.094 8.956-.499.1-1.298.301-2.097.301z"/>
                            <path d="M80.306 201.46c-.899 0-1.797-.604-2.197-1.51-.4-1.106-1.498-2.112-3.195-3.018-1.398-.704-2.696-1.006-2.696-1.006-1.198-.302-1.997-1.51-1.798-2.818.3-1.207 1.498-2.012 2.697-1.81.1 0 1.797.402 3.794 1.408 2.796 1.409 4.693 3.32 5.492 5.534.4 1.208-.2 2.516-1.398 3.019-.2.1-.4.201-.699.201z"/>
                        </g>
                        <path fill="#FFCA05" d="M91.69 122.974l-15.877 29.784-22.268-14.087 15.777-29.684z"/>
                    </g>
                    <g>
                        <path fill="#42404D" d="M113.359 172.48h-13.082c-2.795 0-4.992-2.213-4.992-5.03V138.67c0-2.817 2.197-5.031 4.992-5.031h13.082c2.796 0 4.993 2.214 4.993 5.031v28.778c0 2.818-2.197 5.032-4.993 5.032z"/>
                        <path fill="#231F20" d="M109.165 139.275c0 1.308-.999 2.314-2.297 2.314s-2.297-1.006-2.297-2.314.999-2.314 2.297-2.314 2.297 1.006 2.297 2.314z"/>
                        <g fill="#F7CDB9">
                            <path d="M146.411 173.688s-.1 0 0 0l-3.994-.1h-.4c-.599 0-1.298-.101-1.897-.202l-1.298-.1c-.799-.101-1.697-.202-2.696-.302l-2.197-.403c-.1 0-.2 0-.3-.1l-.698-.101a253.16 253.16 0 0 0-3.995-.906c-5.791-1.509-11.783-3.723-17.674-6.54-3.395-1.61-4.893-5.836-3.296-9.258 1.598-3.42 5.792-4.93 9.187-3.32 5.093 2.415 10.186 4.327 15.178 5.635 1.099.302 2.197.503 3.296.805l.499.1 2.097.403h.1c.4.1.899.1 1.498.201h.499c.3 0 .6.1.899.1.4 0 .898.101 1.298.101h.3v-.1c-.1-.906-.2-1.912-.3-2.918l-.1-.503-.3-1.812c0-.301-.1-.603-.1-.805l-.1-.603a63.018 63.018 0 0 0-3.095-11.17c-1.398-3.521.3-7.647 3.795-9.056 3.495-1.408 7.589.302 8.987 3.824 1.697 4.327 2.995 8.956 3.894 13.886l.1.503c.1.503.2.906.2 1.409l.3 1.811v.201l.1.604c.099 1.107.299 2.314.399 3.522.1 1.51.2 2.817.2 4.125v.906c0 1.107.1 2.314 0 3.522-.2 3.622-3.096 6.44-6.691 6.54l-3.895.101h.2z"/>
                            <path d="M122.845 161.11c-1.198 0-2.197-.905-2.297-2.214 0 0-.1-1.308-.4-2.616-.498-2.012-1.097-2.415-1.197-2.515-1.199-.503-1.698-1.912-1.099-3.12.5-1.207 1.898-1.71 3.096-1.107 1.797.805 3.095 2.717 3.794 5.535.5 1.811.6 3.42.6 3.522.1 1.308-.9 2.415-2.197 2.415-.2.1-.2.1-.3.1z"/>
                        </g>
                        <path fill="#FFCA05" d="M158.993 141.59l-22.268 11.47-2.396-5.635-4.494-10.666-.5-1.207-.998-2.315-4.993-11.873 22.668-10.163z"/>
                    </g>
                </g>
                <g>
                    <path fill="#F7CDB9" d="M106.968 19.03C94.286 19.03 83.9 29.394 83.9 42.274v24.15c0 12.779 10.285 23.243 23.067 23.243 12.682 0 23.067-10.364 23.067-23.244v-24.15c0-12.778-10.385-23.243-23.067-23.243z"/>
                    <path fill="#3C2415" d="M131.932 23.155c1.598-2.415 2.696-5.333 2.596-8.653-1.597.402-3.095.503-4.294.402.9-1.207 1.199-2.515 1.299-3.22 0-.201-.2-.302-.3-.201-4.793 2.314-10.585-.503-10.585-.503-3.794-1.912-7.789-2.918-13.68-2.717-19.372 0-24.964 14.993-24.964 14.993C77.71 33.52 78.908 47.707 84 60.889c.1.201.2.403.3.705-.2-1.007-.2-11.472-.2-11.472 3.894-5.232 5.192-15.898 5.192-15.898s8.189 1.811 17.775 2.214c9.586-.403 17.774-2.214 17.774-2.214s1.298 10.666 5.193 15.898c0 0-.1 10.465-.3 11.472.1-.202.2-.403.3-.705 4.993-13.282 6.19-27.47 1.897-37.734z"/>
                    <path fill="#F7CDB9" d="M99.978 59.078c.1 2.012-1.498 3.723-3.495 3.824-1.997.1-3.695-1.51-3.795-3.522-.1-2.013 1.498-3.723 3.495-3.824 2.097-.1 3.795 1.51 3.795 3.522z"/>
                    <path fill="#3C2415" d="M99.978 58.172c.1 2.013-1.498 3.723-3.495 3.824-1.997.1-3.695-1.51-3.795-3.522-.1-2.012 1.498-3.723 3.495-3.823 2.097-.101 3.795 1.509 3.795 3.521z"/>
                    <path fill="#FFF" d="M98.48 59.883a.898.898 0 1 1-1.797 0 .898.898 0 1 1 1.797 0z"/>
                    <g>
                        <path fill="#F7CDB9" d="M121.247 59.078c.1 2.012-1.497 3.723-3.495 3.824-1.997.1-3.694-1.51-3.794-3.522-.1-2.013 1.498-3.723 3.495-3.824 1.997-.1 3.695 1.51 3.794 3.522z"/>
                        <path fill="#3C2415" d="M121.247 58.172c.1 2.013-1.497 3.723-3.495 3.824-1.997.1-3.694-1.51-3.794-3.522-.1-2.012 1.498-3.723 3.495-3.823 1.997-.101 3.695 1.509 3.794 3.521z"/>
                        <path fill="#FFF" d="M119.75 59.883a.898.898 0 1 1-1.798 0c0-.503.4-.906.899-.906.4 0 .899.403.899.906z"/>
                    </g>
                    <g fill="#F7CDB9">
                        <path d="M83.901 51.934c-2.496 0-4.593 2.113-4.593 4.628v4.83c0 2.516 2.097 4.629 4.593 4.629s4.593-2.113 4.593-4.629v-4.83c0-2.515-1.997-4.628-4.593-4.628zM130.035 51.934c-2.497 0-4.594 2.113-4.594 4.628v4.83c0 2.516 2.097 4.629 4.594 4.629 2.496 0 4.593-2.113 4.593-4.629v-4.83c0-2.515-2.097-4.628-4.593-4.628z"/>
                    </g>
                    <path fill="#FFF" d="M129.835 50.626l-3.096 3.521c-.2-2.314-2.196-4.226-4.593-4.226h-9.187c-2.496 0-4.493 2.013-4.593 4.428h-2.796c-.1-2.415-2.097-4.428-4.594-4.428H91.79a4.59 4.59 0 0 0-4.594 4.226l-3.095-3.521c-.5-.101-.999.2-1.099.704-.1.503.2 1.006.7 1.107l3.594 3.622.7 4.126c0 2.515 2.096 4.528 4.593 4.528h7.389c2.496 0 4.593-2.013 4.593-4.528l.7-4.025h3.295l.699 4.025c0 2.515 2.097 4.528 4.593 4.528h7.39c2.496 0 4.593-2.013 4.593-4.528l.699-4.126 3.595-3.622c.499-.1.798-.604.699-1.107 0-.403-.5-.805-.999-.704zm-26.961 9.358v.2c0 1.51-1.199 2.818-2.796 2.818h-7.39a2.802 2.802 0 0 1-2.796-2.817l-.898-5.635c0-1.51 1.298-2.717 2.796-2.717h9.186c1.498 0 2.697 1.208 2.796 2.717l-.898 5.434zm21.17 0v.2c0 1.51-1.199 2.818-2.797 2.818h-7.389a2.802 2.802 0 0 1-2.796-2.817l-.899-5.635c0-1.51 1.298-2.717 2.796-2.717h9.187c1.498 0 2.696 1.208 2.796 2.717l-.899 5.434z"/>
                </g>
            </g>
        </g>
    </g>
</svg>
